<svg width="504" height="504" viewBox="0 0 504 504" fill="none" xmlns="http://www.w3.org/2000/svg">
<path d="M74.9634 217.738V240.426C79.45 240.426 83.8359 241.756 87.5666 244.249C91.2973 246.741 94.2053 250.283 95.923 254.428C97.6408 258.573 98.0911 263.134 97.217 267.534C96.3429 271.935 94.1838 275.978 91.0124 279.151C88.1227 282.053 75.656 291.594 59.9652 300.526C38.9606 312.468 27.3776 314.856 22.7086 315.31C23.1862 310.127 25.9327 299.428 35.223 282.244C44.8954 264.332 55.9291 250.003 58.9024 247.053C61.0071 244.943 63.509 243.271 66.2637 242.134C69.0184 240.996 71.9712 240.416 74.9515 240.426V217.738C68.9957 217.725 63.0962 218.89 57.5919 221.165C52.0876 223.439 47.0869 226.779 42.8773 230.992C31.151 242.731 -15.8258 311.238 5.4654 332.493C9.32242 336.338 14.7079 337.95 20.989 337.95C49.648 337.95 97.4129 304.694 106.966 295.081C113.287 288.732 117.587 280.654 119.324 271.865C121.061 263.076 120.158 253.97 116.727 245.693C113.297 237.417 107.494 230.341 100.049 225.358C92.6043 220.375 83.8507 217.706 74.8918 217.69L74.9634 217.738Z" fill="white"/>
<path d="M272.148 396.14C267.942 391.926 262.943 388.584 257.441 386.307C251.939 384.031 246.041 382.864 240.086 382.873V405.562C244.573 405.562 248.959 406.892 252.689 409.384C256.42 411.877 259.328 415.419 261.046 419.564C262.764 423.708 263.214 428.269 262.34 432.67C261.466 437.071 259.307 441.113 256.135 444.287C253.234 447.189 240.767 456.73 225.088 465.662C204.083 477.603 192.5 479.991 187.831 480.445C188.309 475.263 191.055 464.563 200.346 447.38C210.018 429.468 221.052 415.139 224.037 412.189C226.139 410.078 228.639 408.406 231.391 407.268C234.144 406.13 237.096 405.55 240.074 405.562V382.873C234.12 382.864 228.222 384.031 222.719 386.307C217.217 388.584 212.219 391.926 208.012 396.14C196.286 407.866 149.309 476.373 170.6 497.641C174.457 501.486 179.843 503.11 186.124 503.11C214.783 503.11 262.548 469.841 272.101 460.229C280.591 451.729 285.364 440.208 285.373 428.194C285.382 416.18 280.626 404.653 272.148 396.14Z" fill="white"/>
<path d="M419.49 160.683C418.129 159.321 417.203 157.587 416.828 155.7C416.453 153.812 416.646 151.856 417.383 150.078C418.12 148.3 419.367 146.78 420.968 145.711C422.568 144.642 424.449 144.071 426.374 144.071C428.298 144.071 430.179 144.642 431.78 145.711C433.38 146.78 434.627 148.3 435.364 150.078C436.101 151.856 436.294 153.812 435.919 155.7C435.544 157.587 434.618 159.321 433.258 160.683C431.431 162.506 428.955 163.531 426.374 163.531C423.792 163.531 421.316 162.506 419.49 160.683ZM343.364 84.5692C342.001 83.2065 341.073 81.4703 340.697 79.5801C340.321 77.69 340.514 75.7308 341.252 73.9503C341.989 72.1698 343.238 70.648 344.841 69.5773C346.443 68.5066 348.327 67.9351 350.254 67.9351C352.181 67.9351 354.065 68.5066 355.668 69.5773C357.27 70.648 358.519 72.1698 359.257 73.9503C359.994 75.7308 360.187 77.69 359.811 79.5801C359.435 81.4703 358.507 83.2065 357.144 84.5692C356.239 85.4741 355.165 86.1918 353.983 86.6815C352.801 87.1712 351.534 87.4232 350.254 87.4232C348.975 87.4232 347.708 87.1712 346.525 86.6815C345.343 86.1918 344.269 85.4741 343.364 84.5692ZM314.705 354.764L440.518 228.867C452.959 214.319 461.569 196.894 465.564 178.173C469.56 159.452 468.815 140.03 463.397 121.671L501 111.604C501.514 111.466 501.995 111.228 502.417 110.904C502.839 110.58 503.192 110.176 503.458 109.716C503.724 109.255 503.896 108.746 503.965 108.219C504.034 107.692 503.998 107.156 503.86 106.643C503.722 106.129 503.485 105.648 503.161 105.226C502.836 104.804 502.433 104.451 501.972 104.185C501.511 103.92 501.003 103.747 500.475 103.678C499.948 103.609 499.412 103.645 498.899 103.783L460.818 113.981C454.684 97.858 445.211 83.2145 433.02 71.0108C420.828 58.8071 406.195 49.319 390.078 43.169L400.276 5.10031C400.555 4.06311 400.41 2.95769 399.874 2.02721C399.337 1.09674 398.453 0.417426 397.416 0.138729C396.379 -0.139968 395.274 0.00477857 394.343 0.541119C393.413 1.07746 392.733 1.96146 392.455 2.99866L382.376 40.6016C364.016 35.1824 344.592 34.4355 325.87 38.429C307.147 42.4225 289.719 51.0297 275.168 63.4691L149.283 189.389L314.705 354.764Z" fill="#3DDC84"/>
<path d="M126.787 166.904L196.512 97.167L221.72 71.971C230.112 63.8443 241.362 59.342 253.044 59.4353C264.726 59.5285 275.903 64.2099 284.164 72.4695C292.425 80.7292 297.108 91.9053 297.204 103.587C297.299 115.269 292.799 126.52 284.674 134.913L189.753 229.846L126.787 166.904Z" fill="#37BF6E"/>
<path d="M335.925 376.019L430.858 281.098C439.09 272.726 443.681 261.44 443.631 249.699C443.582 237.958 438.895 226.711 430.593 218.409C422.29 210.106 411.044 205.42 399.303 205.37C387.561 205.321 376.276 209.912 367.904 218.144L342.708 243.352L272.971 313.041L335.925 376.019Z" fill="#37BF6E"/>
<path d="M275.455 125.695C283.687 117.322 288.278 106.037 288.229 94.2956C288.179 82.5542 283.493 71.3079 275.19 63.0054C266.888 54.7029 255.642 50.0167 243.9 49.9671C232.159 49.9175 220.873 54.5085 212.501 62.7406L187.293 87.9485L114.786 160.444L101.651 173.579C100.159 175.078 99.3223 177.107 99.3223 179.221C99.3223 181.336 100.159 183.364 101.651 184.864L153.296 236.617C154.796 238.108 156.824 238.945 158.939 238.945C161.053 238.945 163.082 238.108 164.581 236.617L177.716 223.482L275.455 125.695Z" fill="#4285F4"/>
<path d="M440.52 290.758C448.752 282.386 453.343 271.101 453.293 259.359C453.244 247.618 448.557 236.371 440.255 228.069C431.952 219.767 420.706 215.08 408.965 215.031C397.223 214.981 385.938 219.572 377.566 227.804L352.358 253.012L279.85 325.507L266.715 338.643C265.224 340.142 264.387 342.17 264.387 344.285C264.387 346.4 265.224 348.428 266.715 349.927L318.385 401.597C319.887 403.082 321.914 403.915 324.027 403.915C326.14 403.915 328.167 403.082 329.669 401.597L342.805 388.462L440.52 290.758Z" fill="#4285F4"/>
</svg>
