<svg width="400" height="398" viewBox="0 0 400 398" fill="none" xmlns="http://www.w3.org/2000/svg">
<path d="M198.563 0C97.0125 0 103.35 44.0375 103.35 44.0375L103.475 89.6625H200.375V103.35H64.9625C64.9625 103.35 0 95.975 0 198.45C0 300.9 56.7125 297.275 56.7125 297.275H90.5625V249.725C90.5625 249.725 88.7375 193.013 146.375 193.013H242.475C242.475 193.013 296.475 193.888 296.475 140.825V53.0875C296.475 53.0875 304.675 0 198.563 0ZM145.125 30.675C154.763 30.675 162.562 38.475 162.562 48.1125C162.562 57.75 154.763 65.55 145.125 65.55C142.834 65.5533 140.565 65.1045 138.448 64.2294C136.331 63.3542 134.407 62.0699 132.787 60.45C131.168 58.8301 129.883 56.9065 129.008 54.7894C128.133 52.6723 127.684 50.4034 127.688 48.1125C127.688 38.475 135.488 30.675 145.125 30.675Z" fill="url(#paint0_linear_492_571)"/>
<path d="M201.438 397.913C302.988 397.913 296.651 353.875 296.651 353.875L296.526 308.25H199.626V294.563H335.026C335.026 294.563 400.001 301.938 400.001 199.475C400.001 97.0125 343.288 100.65 343.288 100.65H309.438V148.188C309.438 148.188 311.263 204.9 253.626 204.9H157.526C157.526 204.9 103.526 204.025 103.526 257.088V344.825C103.526 344.825 95.3259 397.913 201.438 397.913ZM254.876 367.238C252.585 367.241 250.316 366.792 248.199 365.917C246.082 365.042 244.158 363.757 242.538 362.138C240.918 360.518 239.634 358.594 238.759 356.477C237.884 354.36 237.435 352.091 237.438 349.8C237.438 340.175 245.238 332.375 254.876 332.375C264.513 332.375 272.313 340.163 272.313 349.8C272.313 359.45 264.513 367.238 254.876 367.238Z" fill="url(#paint1_linear_492_571)"/>
<defs>
<linearGradient id="paint0_linear_492_571" x1="38.4375" y1="34.775" x2="236.225" y2="233.225" gradientUnits="userSpaceOnUse">
<stop stop-color="#387EB8"/>
<stop offset="1" stop-color="#366994"/>
</linearGradient>
<linearGradient id="paint1_linear_492_571" x1="160.113" y1="161.025" x2="372.538" y2="364.538" gradientUnits="userSpaceOnUse">
<stop stop-color="#FFE052"/>
<stop offset="1" stop-color="#FFC331"/>
</linearGradient>
</defs>
</svg>
